<svg width="479" height="178" viewBox="0 0 479 178" fill="none" xmlns="http://www.w3.org/2000/svg">
<g clip-path="url(#clip0_127_1061)">
<rect width="479" height="178" fill="white"/>
<path d="M266.761 70.6296H296.251L281.416 176.551H251.925L266.761 70.6296ZM229.581 70.6296L209.679 131.648L200.995 70.6296H180.369L154.316 131.467L151.059 70.6296H122.473L132.424 176.551H156.125L185.435 109.558L195.748 176.551H219.087L257.624 70.6296H229.581V70.6296ZM477.176 132.191H407.158C407.52 145.952 415.752 155.005 427.874 155.005C437.011 155.005 444.248 150.116 449.856 140.792L473.494 151.547C465.371 167.562 448.255 178 427.15 178C398.383 178 379.296 158.626 379.296 127.483C379.296 93.2625 401.73 69 433.392 69C461.255 69 478.804 87.8306 478.804 117.163C478.804 122.051 478.262 126.94 477.176 132.191V132.191ZM450.942 111.912C450.942 99.5997 444.067 91.814 433.03 91.814C421.994 91.814 412.224 99.9618 409.691 111.912H450.942ZM30.3012 102.551L0.195312 137.759H53.948L59.9909 121.155H36.9592L51.0351 104.869L51.0804 104.434L41.9256 88.6725H83.095L51.1799 176.551H73.0175L111.554 70.6296H11.9916L30.2921 102.551H30.3012ZM344.196 91.814C354.6 91.814 363.718 97.4088 371.679 107.005L375.858 77.1478C368.44 72.1233 358.399 69 345.101 69C318.686 69 303.85 84.4809 303.85 104.126C303.85 117.751 311.449 126.08 323.933 131.467L329.903 134.183C341.03 138.936 344.016 141.289 344.016 146.314C344.016 151.338 338.995 154.824 331.351 154.824C318.731 154.869 308.509 148.396 300.82 137.351L296.559 167.779C305.316 174.46 316.542 178 331.351 178C356.454 178 371.878 163.515 371.878 143.417C371.878 129.747 365.817 120.965 350.529 114.085L344.016 111.007C334.969 106.978 331.894 104.76 331.894 100.324C331.894 95.5257 336.1 91.814 344.196 91.814V91.814Z" fill="#9FE870"/>
<path d="M9.10821 36V0.238161H23.2174C25.9298 0.238161 28.2406 0.756196 30.1497 1.79226C32.0589 2.81669 33.514 4.24274 34.5152 6.07041C35.528 7.88644 36.0344 9.98187 36.0344 12.3567C36.0344 14.7315 35.5221 16.8269 34.4977 18.6429C33.4733 20.459 31.989 21.8734 30.0449 22.8862C28.1125 23.8989 25.7726 24.4053 23.0253 24.4053H14.0324V18.3461H21.803C23.2581 18.3461 24.4572 18.0958 25.4001 17.5952C26.3547 17.083 27.0648 16.3787 27.5304 15.4823C28.0077 14.5743 28.2464 13.5324 28.2464 12.3567C28.2464 11.1693 28.0077 10.1332 27.5304 9.24847C27.0648 8.35209 26.3547 7.65944 25.4001 7.17051C24.4455 6.66994 23.2348 6.41965 21.768 6.41965H16.6692V36H9.10821ZM50.0335 36.5239C47.3211 36.5239 44.9754 35.9476 42.9964 34.7951C41.029 33.631 39.5098 32.0129 38.4389 29.9407C37.3679 27.857 36.8324 25.4414 36.8324 22.6941C36.8324 19.9235 37.3679 17.5021 38.4389 15.43C39.5098 13.3462 41.029 11.728 42.9964 10.5756C44.9754 9.41145 47.3211 8.82939 50.0335 8.82939C52.7459 8.82939 55.0858 9.41145 57.0532 10.5756C59.0322 11.728 60.5572 13.3462 61.6282 15.43C62.6992 17.5021 63.2347 19.9235 63.2347 22.6941C63.2347 25.4414 62.6992 27.857 61.6282 29.9407C60.5572 32.0129 59.0322 33.631 57.0532 34.7951C55.0858 35.9476 52.7459 36.5239 50.0335 36.5239ZM50.0684 30.7614C51.3024 30.7614 52.3327 30.4122 53.1592 29.7137C53.9857 29.0036 54.6085 28.0374 55.0276 26.8151C55.4583 25.5927 55.6737 24.2016 55.6737 22.6417C55.6737 21.0818 55.4583 19.6906 55.0276 18.4683C54.6085 17.246 53.9857 16.2798 53.1592 15.5697C52.3327 14.8595 51.3024 14.5045 50.0684 14.5045C48.8228 14.5045 47.7751 14.8595 46.9253 15.5697C46.0871 16.2798 45.4527 17.246 45.022 18.4683C44.6029 19.6906 44.3933 21.0818 44.3933 22.6417C44.3933 24.2016 44.6029 25.5927 45.022 26.8151C45.4527 28.0374 46.0871 29.0036 46.9253 29.7137C47.7751 30.4122 48.8228 30.7614 50.0684 30.7614ZM70.2316 36L62.9326 9.17862H70.4586L74.6145 27.1992H74.859L79.1895 9.17862H86.5759L90.9763 27.0945H91.2033L95.2893 9.17862H102.798L95.5163 36H87.6411L83.0311 19.1319H82.6994L78.0894 36H70.2316ZM115.859 36.5239C113.1 36.5239 110.725 35.9651 108.734 34.8475C106.755 33.7183 105.23 32.1235 104.159 30.063C103.088 27.9908 102.553 25.5404 102.553 22.7115C102.553 19.9526 103.088 17.5312 104.159 15.4474C105.23 13.3636 106.738 11.7397 108.682 10.5756C110.637 9.41145 112.931 8.82939 115.562 8.82939C117.331 8.82939 118.978 9.11459 120.503 9.68501C122.04 10.2438 123.379 11.0878 124.52 12.217C125.672 13.3462 126.568 14.7664 127.209 16.4777C127.849 18.1773 128.169 20.1679 128.169 22.4496V24.4927H105.521V19.8827H121.167C121.167 18.8117 120.934 17.863 120.468 17.0364C120.003 16.2099 119.357 15.5638 118.53 15.0982C117.715 14.6209 116.767 14.3822 115.684 14.3822C114.555 14.3822 113.554 14.6442 112.68 15.168C111.819 15.6802 111.144 16.3729 110.655 17.246C110.166 18.1074 109.916 19.0678 109.904 20.1272V24.5101C109.904 25.8372 110.148 26.9839 110.637 27.9501C111.138 28.9163 111.842 29.6614 112.75 30.1852C113.658 30.7091 114.735 30.971 115.981 30.971C116.807 30.971 117.564 30.8546 118.251 30.6218C118.938 30.3889 119.525 30.0397 120.014 29.574C120.503 29.1084 120.876 28.538 121.132 27.8628L128.012 28.3168C127.663 29.9698 126.947 31.4134 125.864 32.6473C124.793 33.8697 123.408 34.8242 121.708 35.5111C120.02 36.1863 118.07 36.5239 115.859 36.5239ZM130.565 36V9.17862H137.777V13.8584H138.056C138.545 12.1937 139.366 10.9364 140.518 10.0866C141.671 9.22519 142.998 8.79446 144.499 8.79446C144.872 8.79446 145.274 8.81774 145.704 8.86431C146.135 8.91087 146.513 8.9749 146.839 9.05639V15.657C146.49 15.5522 146.007 15.4591 145.39 15.3776C144.773 15.2961 144.208 15.2553 143.696 15.2553C142.602 15.2553 141.624 15.494 140.763 15.9713C139.913 16.4369 139.238 17.0888 138.737 17.927C138.248 18.7652 138.004 19.7314 138.004 20.8257V36H130.565ZM159.201 36.5239C156.442 36.5239 154.068 35.9651 152.077 34.8475C150.098 33.7183 148.573 32.1235 147.502 30.063C146.431 27.9908 145.895 25.5404 145.895 22.7115C145.895 19.9526 146.431 17.5312 147.502 15.4474C148.573 13.3636 150.081 11.7397 152.025 10.5756C153.98 9.41145 156.274 8.82939 158.905 8.82939C160.674 8.82939 162.321 9.11459 163.846 9.68501C165.383 10.2438 166.722 11.0878 167.862 12.217C169.015 13.3462 169.911 14.7664 170.552 16.4777C171.192 18.1773 171.512 20.1679 171.512 22.4496V24.4927H148.864V19.8827H164.51C164.51 18.8117 164.277 17.863 163.811 17.0364C163.346 16.2099 162.7 15.5638 161.873 15.0982C161.058 14.6209 160.109 14.3822 159.027 14.3822C157.898 14.3822 156.896 14.6442 156.023 15.168C155.162 15.6802 154.487 16.3729 153.998 17.246C153.509 18.1074 153.259 19.0678 153.247 20.1272V24.5101C153.247 25.8372 153.491 26.9839 153.98 27.9501C154.481 28.9163 155.185 29.6614 156.093 30.1852C157.001 30.7091 158.078 30.971 159.324 30.971C160.15 30.971 160.907 30.8546 161.594 30.6218C162.281 30.3889 162.868 30.0397 163.357 29.574C163.846 29.1084 164.219 28.538 164.475 27.8628L171.355 28.3168C171.006 29.9698 170.29 31.4134 169.207 32.6473C168.136 33.8697 166.751 34.8242 165.051 35.5111C163.363 36.1863 161.413 36.5239 159.201 36.5239ZM183.791 36.4365C181.754 36.4365 179.909 35.9127 178.256 34.865C176.614 33.8056 175.311 32.2515 174.344 30.2027C173.39 28.1422 172.912 25.616 172.912 22.6242C172.912 19.551 173.407 16.9957 174.397 14.9585C175.386 12.9096 176.702 11.3788 178.343 10.366C179.996 9.3416 181.806 8.82939 183.774 8.82939C185.275 8.82939 186.527 9.08549 187.528 9.59771C188.541 10.0983 189.356 10.7269 189.973 11.4836C190.601 12.2286 191.079 12.962 191.405 13.6838H191.632V0.238161H199.053V36H191.719V31.7044H191.405C191.055 32.4494 190.561 33.1886 189.92 33.922C189.292 34.6438 188.471 35.2433 187.458 35.7206C186.457 36.1979 185.235 36.4365 183.791 36.4365ZM186.149 30.517C187.348 30.517 188.36 30.191 189.187 29.5391C190.025 28.8756 190.665 27.9501 191.108 26.7627C191.562 25.5753 191.789 24.1842 191.789 22.5893C191.789 20.9945 191.568 19.6092 191.125 18.4334C190.683 17.2576 190.043 16.3496 189.204 15.7093C188.366 15.0691 187.348 14.7489 186.149 14.7489C184.926 14.7489 183.896 15.0807 183.058 15.7443C182.22 16.4078 181.585 17.3275 181.154 18.5032C180.724 19.679 180.508 21.041 180.508 22.5893C180.508 24.1492 180.724 25.5287 181.154 26.7278C181.597 27.9152 182.231 28.8465 183.058 29.5217C183.896 30.1852 184.926 30.517 186.149 30.517ZM211.772 36V0.238161H219.211V13.6838H219.438C219.764 12.962 220.235 12.2286 220.852 11.4836C221.481 10.7269 222.296 10.0983 223.297 9.59771C224.31 9.08549 225.567 8.82939 227.069 8.82939C229.024 8.82939 230.829 9.3416 232.482 10.366C234.135 11.3788 235.456 12.9096 236.446 14.9585C237.435 16.9957 237.93 19.551 237.93 22.6242C237.93 25.616 237.447 28.1422 236.481 30.2027C235.526 32.2515 234.222 33.8056 232.569 34.865C230.928 35.9127 229.088 36.4365 227.051 36.4365C225.608 36.4365 224.379 36.1979 223.367 35.7206C222.366 35.2433 221.545 34.6438 220.905 33.922C220.264 33.1886 219.775 32.4494 219.438 31.7044H219.106V36H211.772ZM219.054 22.5893C219.054 24.1842 219.275 25.5753 219.717 26.7627C220.16 27.9501 220.8 28.8756 221.638 29.5391C222.476 30.191 223.495 30.517 224.694 30.517C225.904 30.517 226.929 30.1852 227.767 29.5217C228.605 28.8465 229.24 27.9152 229.67 26.7278C230.113 25.5287 230.334 24.1492 230.334 22.5893C230.334 21.041 230.119 19.679 229.688 18.5032C229.257 17.3275 228.623 16.4078 227.785 15.7443C226.946 15.0807 225.916 14.7489 224.694 14.7489C223.483 14.7489 222.459 15.0691 221.62 15.7093C220.794 16.3496 220.16 17.2576 219.717 18.4334C219.275 19.6092 219.054 20.9945 219.054 22.5893ZM244.163 46.058C243.22 46.058 242.335 45.9823 241.509 45.831C240.694 45.6913 240.019 45.5109 239.483 45.2897L241.159 39.7368C242.032 40.0046 242.818 40.1501 243.517 40.1734C244.227 40.1967 244.838 40.0337 245.35 39.6844C245.874 39.3352 246.299 38.7415 246.625 37.9033L247.062 36.7683L237.44 9.17862H245.263L250.816 28.8756H251.095L256.7 9.17862H264.576L254.151 38.8987C253.65 40.3422 252.969 41.5994 252.108 42.6704C251.258 43.7531 250.181 44.5854 248.878 45.1675C247.574 45.7612 246.002 46.058 244.163 46.058Z" fill="#9FE870"/>
</g>
<defs>
<clipPath id="clip0_127_1061">
<rect width="479" height="178" fill="white"/>
</clipPath>
</defs>
</svg>
