<svg width="64" height="64" viewBox="0 0 64 64" fill="none" xmlns="http://www.w3.org/2000/svg">
<g clip-path="url(#clip0_6_785)">
<path d="M32 48C40.8366 48 48 40.8366 48 32C48 23.1634 40.8366 16 32 16C23.1634 16 16 23.1634 16 32C16 40.8366 23.1634 48 32 48Z" fill="#F0263C" style="fill:#F0263C;fill:color(display-p3 0.9412 0.1490 0.2353);fill-opacity:1;"/>
<path d="M23.9896 18.1518V1.0111C12.75 3.9081 3.90363 12.759 1.01013 24H18.1458C19.5484 21.5764 21.567 19.5562 23.9896 18.1518Z" fill="#1E5B00" style="fill:#1E5B00;fill:color(display-p3 0.1176 0.3569 0.0000);fill-opacity:1;"/>
<path d="M0.6925 25.3611C0.2405 27.5032 0 29.7233 0 32C0 31.1009 0.0465 30.2135 0.1191 29.3333C0.2305 27.9844 0.4217 26.6581 0.6925 25.3611Z" fill="#1E5B00" style="fill:#1E5B00;fill:color(display-p3 0.1176 0.3569 0.0000);fill-opacity:1;"/>
<path d="M18.1458 40H1.01013C3.90373 51.2409 12.75 60.0919 23.9896 62.9889V45.8482C21.5671 44.4439 19.5484 42.4236 18.1458 40Z" fill="#1E5B00" style="fill:#1E5B00;fill:color(display-p3 0.1176 0.3569 0.0000);fill-opacity:1;"/>
<path d="M0 32C0 34.2771 0.2406 36.4977 0.6927 38.6402C0.4217 37.3427 0.2306 36.016 0.1191 34.6666C0.0465 33.7865 0 32.8991 0 32Z" fill="#1E5B00" style="fill:#1E5B00;fill:color(display-p3 0.1176 0.3569 0.0000);fill-opacity:1;"/>
<path d="M64 32C64 29.7234 63.7596 27.5034 63.3076 25.3614C63.5784 26.6584 63.7694 27.9846 63.8808 29.3334C63.9534 30.2136 64 31.1009 64 32Z" fill="#1E5B00" style="fill:#1E5B00;fill:color(display-p3 0.1176 0.3569 0.0000);fill-opacity:1;"/>
<path d="M63.3073 38.6398C63.7594 36.4974 64 34.277 64 32C64 32.8991 63.9535 33.7865 63.8809 34.6667C63.7694 36.0159 63.5783 37.3425 63.3073 38.6398Z" fill="#1E5B00" style="fill:#1E5B00;fill:color(display-p3 0.1176 0.3569 0.0000);fill-opacity:1;"/>
<path d="M45.8542 24H62.9899C60.0964 12.7591 51.25 3.9082 40.0104 1.0112V18.1518C42.4329 19.5561 44.4516 21.5764 45.8542 24Z" fill="#1E5B00" style="fill:#1E5B00;fill:color(display-p3 0.1176 0.3569 0.0000);fill-opacity:1;"/>
<path d="M40.0104 45.8482V62.9888C51.25 60.0917 60.0964 51.2409 62.9899 40H45.8542C44.4516 42.4236 42.433 44.4438 40.0104 45.8482Z" fill="#1E5B00" style="fill:#1E5B00;fill:color(display-p3 0.1176 0.3569 0.0000);fill-opacity:1;"/>
<path d="M32 48C31.091 48 30.201 47.9202 29.3334 47.7746V63.8808C30.2135 63.9535 31.1011 64 32 64C32.8989 64 33.7865 63.9535 34.6667 63.8808V47.7745C33.799 47.9201 32.9091 48 32 48Z" fill="black" style="fill:black;fill-opacity:1;"/>
<path d="M32 16C32.909 16 33.799 16.0798 34.6667 16.2255V0.1192C33.7865 0.0465 32.8989 0 32 0C31.1011 0 30.2135 0.0465 29.3334 0.1192V16.2254C30.201 16.0798 31.091 16 32 16Z" fill="black" style="fill:black;fill-opacity:1;"/>
<path d="M29.3334 16.2254V0.119202C27.5051 0.270202 25.7178 0.565702 23.9896 1.0112V18.1519C25.6122 17.2112 27.4144 16.5475 29.3334 16.2254Z" fill="#FFD400" style="fill:#FFD400;fill:color(display-p3 1.0000 0.8314 0.0000);fill-opacity:1;"/>
<path d="M23.9896 45.8482V62.9889C25.7178 63.4343 27.5051 63.7299 29.3334 63.8809V47.7747C27.4144 47.4526 25.6122 46.7889 23.9896 45.8482Z" fill="#FFD400" style="fill:#FFD400;fill:color(display-p3 1.0000 0.8314 0.0000);fill-opacity:1;"/>
<path d="M34.6667 47.7745V63.8808C34.6701 63.8805 34.6737 63.8803 34.6771 63.88C36.5018 63.7287 38.2856 63.4334 40.0104 62.9888V45.8482C38.3878 46.7889 36.5859 47.4523 34.6667 47.7745Z" fill="white" style="fill:white;fill-opacity:1;"/>
<path d="M40.0104 18.1518V1.0112C38.2855 0.566602 36.5019 0.271302 34.6772 0.120002C34.6738 0.119702 34.6701 0.119502 34.6667 0.119202V16.2255C36.5858 16.5476 38.3877 17.2111 40.0104 18.1518Z" fill="white" style="fill:white;fill-opacity:1;"/>
<path d="M47.7747 29.3333C47.9203 30.2009 48.0001 31.0909 48.0001 32C48.0001 32.9091 47.9203 33.799 47.7747 34.6667H63.881C63.9536 33.7865 64.0001 32.8991 64.0001 32C64.0001 31.1009 63.9536 30.2135 63.881 29.3333H47.7747Z" fill="black" style="fill:black;fill-opacity:1;"/>
<path d="M16.2254 34.6667C16.0798 33.7991 16 32.9091 16 32C16 31.0909 16.0798 30.201 16.2254 29.3333H0.1191C0.0465 30.2135 0 31.1009 0 32C0 32.8991 0.0465 33.7865 0.1191 34.6667H16.2254Z" fill="black" style="fill:black;fill-opacity:1;"/>
<path d="M47.7745 29.3333H63.8808C63.7694 27.9845 63.5784 26.6583 63.3076 25.3613C63.303 25.3397 63.2995 25.3178 63.2949 25.2963C63.234 25.0081 63.1632 24.7238 63.0944 24.4386C63.0592 24.2928 63.0291 24.1449 62.9919 23.9999H45.8542C46.7917 25.6199 47.4531 27.4184 47.7745 29.3333Z" fill="#FFD400" style="fill:#FFD400;fill:color(display-p3 1.0000 0.8314 0.0000);fill-opacity:1;"/>
<path d="M16.2253 29.3333C16.5468 27.4183 17.2082 25.6199 18.1457 24H1.00804C0.970841 24.1446 0.940941 24.292 0.905841 24.4374C0.836841 24.723 0.765841 25.0078 0.705041 25.2964C0.700441 25.3178 0.696941 25.3397 0.692541 25.3611C0.421741 26.6581 0.230541 27.9844 0.119141 29.3333H16.2253Z" fill="#FFD400" style="fill:#FFD400;fill:color(display-p3 1.0000 0.8314 0.0000);fill-opacity:1;"/>
<path d="M63.0942 39.5621C63.163 39.2766 63.2341 38.992 63.295 38.7035C63.2995 38.6824 63.303 38.6609 63.3074 38.6398C63.5784 37.3425 63.7695 36.0159 63.881 34.6667H47.7747C47.4532 36.5817 46.7917 38.3801 45.8542 40H62.992C63.0293 39.8552 63.059 39.7076 63.0942 39.5621Z" fill="white" style="fill:white;fill-opacity:1;"/>
<path d="M16.2254 34.6667H0.119141C0.230641 36.0161 0.421741 37.3428 0.692741 38.6403C0.697141 38.6613 0.700541 38.6825 0.705041 38.7035C0.765941 38.992 0.836941 39.2767 0.905841 39.5621C0.941041 39.7077 0.970941 39.8553 1.00824 40H18.1459C17.2084 38.38 16.5468 36.5816 16.2254 34.6667Z" fill="white" style="fill:white;fill-opacity:1;"/>
<path d="M29.3333 38.6667V37.3333H28V38.6667H26.6667L28 40H30.6667V38.6667H29.3333Z" fill="#CC9500" style="fill:#CC9500;fill:color(display-p3 0.8000 0.5843 0.0000);fill-opacity:1;"/>
<path d="M33.3334 38.6667V40H34.6668H36.6668H37.3334V38.6667H34.6668H33.3334Z" fill="#CC9500" style="fill:#CC9500;fill:color(display-p3 0.8000 0.5843 0.0000);fill-opacity:1;"/>
<path d="M33.3334 26.6667L34.6668 28H36.0001L34.6668 26.6667H36.0001L34.6668 25.3333H36.0001L34.6668 24L32.0001 22.6667L29.3334 24H30.6668V25.3333L32.0001 26.6667H33.3334Z" fill="#9063CD" style="fill:#9063CD;fill:color(display-p3 0.5647 0.3882 0.8039);fill-opacity:1;"/>
<path d="M29.3334 24V26.6667L30.6668 25.3333V24H29.3334Z" fill="#FFD400" style="fill:#FFD400;fill:color(display-p3 1.0000 0.8314 0.0000);fill-opacity:1;"/>
<path d="M34.6667 40V41.3333L36 42.6667L37.3334 40H36.6667H34.6667Z" fill="#1E5B00" style="fill:#1E5B00;fill:color(display-p3 0.1176 0.3569 0.0000);fill-opacity:1;"/>
<path d="M33.3333 38.6667L32 37.3333L30.6667 38.6667V40L32 41.3333H33.3333L34.6667 40H33.3333V38.6667Z" fill="#FFD400" style="fill:#FFD400;fill:color(display-p3 1.0000 0.8314 0.0000);fill-opacity:1;"/>
<path d="M32 33.3333V32L30.6667 29.3333V28H29.3333L28 30.6667L29.3333 33.3333L30.6667 36L32 37.3333V34.6667V33.3333Z" fill="#9063CD" style="fill:#9063CD;fill:color(display-p3 0.5647 0.3882 0.8039);fill-opacity:1;"/>
<path d="M37.3334 34.6667L36.0001 30.6667L34.6668 28L33.3334 26.6667H32.0001L30.6668 25.3333V26.6667L29.3334 28H30.6668V29.3333L32.0001 32V33.3333V34.6667V37.3333L33.3334 38.6667H34.6668H37.3334V37.3333L38.6668 38.6667L37.3334 34.6667Z" fill="#1E5B00" style="fill:#1E5B00;fill:color(display-p3 0.1176 0.3569 0.0000);fill-opacity:1;"/>
<path d="M32 17.3333L30 19.3333L32 21.3333L34 19.3333L32 17.3333Z" fill="#1E5B00" style="fill:#1E5B00;fill:color(display-p3 0.1176 0.3569 0.0000);fill-opacity:1;"/>
<path d="M40.6208 20.1344L37.8273 20.5768L38.2697 23.3704L41.0633 22.9279L40.6208 20.1344Z" fill="#1E5B00" style="fill:#1E5B00;fill:color(display-p3 0.1176 0.3569 0.0000);fill-opacity:1;"/>
<path d="M43.4287 26.1837L42.1447 28.7038L44.6648 29.9879L45.9488 27.4678L43.4287 26.1837Z" fill="#1E5B00" style="fill:#1E5B00;fill:color(display-p3 0.1176 0.3569 0.0000);fill-opacity:1;"/>
<path d="M44.6648 34.0121L42.1447 35.2962L43.4287 37.8163L45.9488 36.5322L44.6648 34.0121Z" fill="#1E5B00" style="fill:#1E5B00;fill:color(display-p3 0.1176 0.3569 0.0000);fill-opacity:1;"/>
<path d="M38.2697 40.6295L37.8273 43.4231L40.6208 43.8655L41.0633 41.0719L38.2697 40.6295Z" fill="#1E5B00" style="fill:#1E5B00;fill:color(display-p3 0.1176 0.3569 0.0000);fill-opacity:1;"/>
<path d="M32 42.6667L30 44.6667L32 46.6667L34 44.6667L32 42.6667Z" fill="#1E5B00" style="fill:#1E5B00;fill:color(display-p3 0.1176 0.3569 0.0000);fill-opacity:1;"/>
<path d="M25.7302 40.6294L22.9366 41.0719L23.3791 43.8655L26.1727 43.423L25.7302 40.6294Z" fill="#1E5B00" style="fill:#1E5B00;fill:color(display-p3 0.1176 0.3569 0.0000);fill-opacity:1;"/>
<path d="M19.3352 34.0121L18.0511 36.5322L20.5713 37.8163L21.8553 35.2962L19.3352 34.0121Z" fill="#1E5B00" style="fill:#1E5B00;fill:color(display-p3 0.1176 0.3569 0.0000);fill-opacity:1;"/>
<path d="M20.5714 26.1837L18.0513 27.4678L19.3353 29.9879L21.8555 28.7039L20.5714 26.1837Z" fill="#1E5B00" style="fill:#1E5B00;fill:color(display-p3 0.1176 0.3569 0.0000);fill-opacity:1;"/>
<path d="M23.3791 20.1344L22.9366 22.928L25.7302 23.3705L26.1727 20.5769L23.3791 20.1344Z" fill="#1E5B00" style="fill:#1E5B00;fill:color(display-p3 0.1176 0.3569 0.0000);fill-opacity:1;"/>
</g>
<defs>
<clipPath id="clip0_6_785">
<rect width="64" height="64" fill="white" style="fill:white;fill-opacity:1;"/>
</clipPath>
</defs>
</svg>
