<svg width="649" height="329" viewBox="0 0 649 329" fill="none" xmlns="http://www.w3.org/2000/svg">
<path d="M359.203 17.8284H396.631L377.802 152.157H340.374L359.203 17.8284ZM312.019 17.8284L286.761 95.2107L275.739 17.8284H249.562L216.496 94.9812L212.364 17.8284H176.083L188.713 152.157H218.793L255.992 67.197L269.08 152.157H298.701L347.61 17.8284H312.019ZM626.252 95.8996H537.389C537.848 113.351 548.296 124.832 563.68 124.832C575.276 124.832 584.461 118.632 591.579 106.807L621.577 120.442C611.264 140.756 589.54 153.994 562.762 153.994C526.252 153.994 502.027 129.424 502.027 89.9296C502.027 46.5312 530.5 15.7618 570.684 15.7618C606.045 15.7618 628.319 39.6424 628.319 76.8411C628.319 83.041 627.63 89.2406 626.252 95.8996ZM592.957 70.182C592.957 54.5678 584.231 44.694 570.225 44.694C555.758 44.694 543.818 55.027 540.603 70.182H592.957ZM59.099 58.3077L20.8936 102.957H89.111L96.7767 81.9033H67.5449L85.4061 61.252L85.4633 60.7042L73.8494 40.7121H126.101L85.5973 152.157H113.315L162.224 17.8285H35.8699L59.099 58.3077ZM457.48 44.6941C470.684 44.6941 482.253 51.7942 492.356 63.9639L497.664 26.0948C488.25 19.7228 475.506 15.7618 458.628 15.7618C425.104 15.7618 406.275 35.3946 406.275 60.3084C406.275 77.5874 415.919 88.1499 431.763 94.9812L439.341 98.4255C453.462 104.453 457.251 107.438 457.251 113.81C457.251 120.412 450.879 124.602 441.178 124.602C425.161 124.66 412.188 116.451 402.429 102.444L397.021 141.028C408.134 149.502 422.381 153.994 441.178 153.994C473.038 153.994 492.612 135.624 492.612 110.136C492.612 92.7998 484.921 81.6632 465.517 72.9375L457.251 69.0341C445.77 63.9248 441.867 61.112 441.867 55.4864C441.867 49.4015 447.205 44.6941 457.48 44.6941Z" fill="#163300"/>
<path d="M143.999 199.088C138.571 196.079 131.724 194.575 123.46 194.575H85.5967V300.799H101.624V263.455H123.408C131.637 263.455 138.475 261.943 143.921 258.917C149.367 255.891 153.447 251.777 156.162 246.572C158.877 241.368 160.234 235.498 160.234 228.963C160.234 222.462 158.885 216.611 156.188 211.406C153.491 206.202 149.427 202.096 143.999 199.088ZM141.82 239.699C140.299 242.847 137.913 245.328 134.663 247.143C131.412 248.958 127.176 249.866 121.955 249.866H101.624V208.32H121.748C127.073 208.32 131.369 209.201 134.637 210.965C137.905 212.729 140.299 215.166 141.82 218.279C143.342 221.391 144.102 224.952 144.102 228.963C144.103 232.975 143.342 236.554 141.82 239.699Z" fill="#163300"/>
<path d="M186.764 194.575H171.255V300.799H186.764V194.575Z" fill="#163300"/>
<path d="M256.176 225.28C253.046 223.31 249.692 221.953 246.113 221.209C242.535 220.466 239.155 220.094 235.973 220.094C231.167 220.094 226.585 220.777 222.229 222.143C217.871 223.509 214.025 225.687 210.688 228.678C207.351 231.669 204.818 235.585 203.089 240.426L217.665 243.745C218.806 240.944 220.871 238.395 223.862 236.095C226.853 233.795 230.959 232.646 236.18 232.646C241.194 232.646 244.972 233.891 247.514 236.38C250.056 238.87 251.327 242.38 251.327 246.909V247.273C251.327 249.139 250.652 250.488 249.303 251.318C247.954 252.148 245.793 252.745 242.82 253.107C239.846 253.47 235.973 253.929 231.201 254.482C227.432 254.931 223.732 255.589 220.102 256.453C216.471 257.318 213.185 258.598 210.247 260.291C207.308 261.986 204.974 264.285 203.245 267.19C201.516 270.094 200.651 273.795 200.651 278.289C200.651 283.511 201.836 287.92 204.205 291.516C206.572 295.112 209.797 297.852 213.877 299.737C217.958 301.621 222.522 302.563 227.57 302.563C231.961 302.563 235.731 301.923 238.878 300.644C242.024 299.365 244.6 297.758 246.606 295.821C248.611 293.885 250.115 291.914 251.118 289.907H251.741V300.8H266.886V247.895C266.886 242.085 265.883 237.357 263.878 233.709C261.872 230.062 259.305 227.251 256.176 225.28ZM251.378 272.065C251.378 275.212 250.574 278.16 248.966 280.908C247.358 283.657 245.024 285.879 241.964 287.574C238.904 289.268 235.229 290.115 230.942 290.115C226.551 290.115 222.937 289.138 220.102 287.185C217.266 285.232 215.849 282.335 215.849 278.496C215.849 275.731 216.584 273.51 218.053 271.832C219.523 270.155 221.493 268.867 223.966 267.967C226.438 267.069 229.179 266.429 232.187 266.048C233.466 265.876 235.057 265.659 236.959 265.4C238.86 265.141 240.814 264.848 242.82 264.518C244.825 264.19 246.614 263.792 248.189 263.326C249.761 262.858 250.825 262.349 251.378 261.795L251.378 272.065Z" fill="#163300"/>
<path d="M314.736 287.781C313.802 287.954 312.713 288.04 311.469 288.04C309.774 288.04 308.209 287.773 306.775 287.236C305.34 286.701 304.172 285.68 303.273 284.177C302.373 282.672 301.925 280.416 301.925 277.407V233.579H318.263V221.132H301.925V202.044H286.416V221.132H274.746V233.579H286.416V280.623C286.416 285.429 287.506 289.423 289.684 292.605C291.863 295.787 294.715 298.137 298.242 299.659C301.77 301.18 305.573 301.906 309.653 301.838C312.143 301.802 314.218 301.603 315.877 301.241C317.537 300.878 318.816 300.524 319.715 300.177L316.914 287.366C316.396 287.47 315.669 287.608 314.736 287.781Z" fill="#163300"/>
<path d="M356.922 205.882C358.53 204.015 361.219 203.081 364.987 203.081C366.612 203.081 367.996 203.229 369.137 203.522C370.278 203.817 371.211 204.067 371.937 204.274L375.569 191.722C374.496 191.307 372.853 190.849 370.64 190.347C368.428 189.847 365.765 189.595 362.653 189.595C358.434 189.595 354.527 190.417 350.931 192.059C347.335 193.702 344.447 196.175 342.269 199.476C340.091 202.779 339.002 206.919 339.002 211.899V221.131H326.657V233.579H339.002V300.799H354.51V233.579H371.678V221.131H354.51V213.973C354.51 210.446 355.315 207.749 356.922 205.882Z" fill="#163300"/>
<path d="M431.955 225.228C426.387 221.805 419.869 220.094 412.401 220.094C404.932 220.094 398.413 221.805 392.846 225.228C387.278 228.652 382.957 233.459 379.88 239.648C376.802 245.838 375.264 253.065 375.264 261.329C375.264 269.558 376.802 276.751 379.88 282.905C382.957 289.061 387.278 293.85 392.846 297.273C398.413 300.696 404.932 302.408 412.401 302.408C419.869 302.408 426.387 300.696 431.955 297.273C437.521 293.85 441.844 289.061 444.922 282.905C447.998 276.751 449.538 269.558 449.538 261.329C449.538 253.065 447.998 245.838 444.922 239.648C441.844 233.459 437.521 228.652 431.955 225.228ZM431.565 275.333C430.026 279.586 427.667 282.992 424.486 285.551C421.304 288.11 417.293 289.389 412.452 289.389C407.577 289.389 403.539 288.11 400.341 285.551C397.143 282.992 394.774 279.586 393.236 275.333C391.696 271.079 390.927 266.394 390.927 261.277C390.927 256.194 391.696 251.518 393.236 247.246C394.774 242.976 397.143 239.544 400.341 236.951C403.539 234.357 407.577 233.061 412.452 233.061C417.293 233.061 421.304 234.357 424.486 236.951C427.667 239.544 430.026 242.976 431.565 247.246C433.104 251.518 433.874 256.194 433.874 261.277C433.874 266.394 433.104 271.079 431.565 275.333Z" fill="#163300"/>
<path d="M498.014 219.938C493.347 219.938 489.171 221.175 485.489 223.647C481.806 226.119 479.238 229.5 477.787 233.787H476.956V221.132H461.967V300.799H477.475V252.148C477.475 248.691 478.305 245.604 479.965 242.889C481.625 240.175 483.881 238.049 486.733 236.51C489.586 234.972 492.845 234.202 496.511 234.202C498.101 234.202 499.691 234.315 501.282 234.539C502.873 234.764 503.98 234.963 504.602 235.135V220.301C503.841 220.198 502.795 220.112 501.464 220.042C500.132 219.973 498.982 219.938 498.014 219.938Z" fill="#163300"/>
<path d="M616.287 226.888C611.704 222.359 605.8 220.094 598.573 220.094C592.833 220.094 587.889 221.365 583.739 223.907C579.59 226.448 576.564 229.845 574.662 234.098H573.833C572.103 229.741 569.432 226.318 565.819 223.828C562.205 221.339 557.736 220.094 552.411 220.094C547.155 220.094 542.643 221.331 538.874 223.802C535.104 226.275 532.39 229.707 530.731 234.098H529.746V221.132H514.859V300.8H530.368V251.681C530.368 248.085 531.12 244.921 532.623 242.19C534.129 239.458 536.116 237.323 538.589 235.784C541.06 234.245 543.766 233.475 546.706 233.475C551.028 233.475 554.538 234.79 557.236 237.417C559.932 240.046 561.281 243.521 561.281 247.843V300.8H576.737V250.021C576.737 245.181 578.138 241.213 580.939 238.118C583.739 235.024 587.664 233.475 592.713 233.475C596.792 233.475 600.302 234.687 603.242 237.107C606.18 239.527 607.65 243.434 607.65 248.828V300.799H623.159V247.376C623.159 238.248 620.868 231.419 616.287 226.888Z" fill="#163300"/>
</svg>
